<?xml version="1.0" encoding="utf-8"?>
<!-- Generator: Adobe Illustrator 23.0.0, SVG Export Plug-In . SVG Version: 6.00 Build 0)  -->
<svg version="1.1"
	 id="Layer_1" xmlns:dc="http://purl.org/dc/elements/1.1/" xmlns:mapsvg="http://mapsvg.com" xmlns:rdf="http://www.w3.org/1999/02/22-rdf-syntax-ns#" xmlns:svg="http://www.w3.org/2000/svg"
	 xmlns="http://www.w3.org/2000/svg" xmlns:xlink="http://www.w3.org/1999/xlink" x="0px" y="0px" viewBox="0 0 294.6 792.6"
	 style="enable-background:new 0 0 294.6 792.6;" xml:space="preserve">
<style type="text/css">
	.st0{
	fill:none;
	stroke:#000000;
	stroke-width: 3px;
	stroke-miterlimit:10;
	stroke-dasharray:1500;
	stroke-dashoffset:0;
	-webkit-animation:dash 5s linear forwards;
	-o-animation:dash 5s linear forwards;
	-mox-animation:dash 5s linear forwards;
	animation:dash 5s linear forwards;
	repeatCount: indefinite;

}

	@-webkit-keyframes dash {
	from {
	stroke-dashoffset:1500;
	}
	to {
	stroke-dashoffset:0;
	}
</style>

<path id="IL-GH" class="st0" d="M290.6,111.9l-3.1,5.4l-2.5,5.6l-2.8,3l-4.2,7.6l-5.4,6.2l-0.2-0.7l-1.1-0.6l-3.8,1.6l-1.8,0.2
	l-0.9,0.7l-0.7,1.5l-0.7,2.8l-3.9,0.5l-2.5,2.5l-2.7,1.9l-1.7,0.5l-1.2,0.8l-4.3,0.3l-2.1,1.3l0,0l-0.1-1.3l-0.5-0.5l-3.3-1.5
	L240,149l0.1-0.4l3.3-3.3l1.9-4l0.5-3.6l0.3-7.4l1.2-4.6l0.3-3.1l-0.5-3.2l-0.8-1.9l-2.2-4.4l-1.5-1.6l-0.7-1.2l-1.3,0.6l-0.8-0.4
	l-0.4-0.9l0.1-1.1l1-2.2l0.4-1.8l0.8-10.5l-0.3-4.7l-2-3.7l-0.1-1l2.8-2.8l1.8-3.4l0.8-0.9l1.9-0.6l0.5,0.6l0.1-5.3l0.5-4.5l2.6-6.9
	l0.6-2.5l0-1.4l-0.8-3.6l-0.3-2.7l0.1-4.5l0.8-3.2l1.5-3.4l-0.2-0.5l-1-0.6l-2.2-0.3l-1,0.1l-2.3,1.2l-1.3,0.3l-1.3-0.3l-1.4-1.3
	l0,0l0.6-1.6l0.8-1.1l5-2.3l5.3-3.2L255,28l2.6-4.1l1.4-1.3l1.1-0.4l4.3,0.4l2.6-0.5l3.5-1.4l3.2-2.6l1-1.4l0.5-1.6l0.8-5.2l1.5-2.4
	l2.6-1.9l9.5-5.3l0.9,0.7l0.2,1.5l-0.6,2.6l-1.8,3l-3.4,3.9l-1.5,3.8l-0.5,3.7l0.8,8.3l-0.3,1.4l-2,3.4l1.3,1.5l2.5,2.2l1.1,1.6
	l0.6,1l1.2,4.2l0.2,2.4l-0.3,1.6l-0.6,1.7l-1.5,1.7l-0.5,1.1l0.3,2.2l1.4,0.5l2.4,0.2l1.3,0.6l3.6,5.3l-0.4,5.4l-2.8,2.4l-0.3,0.8
	l0.4,1.1l2,2.2l0.2,0.9l-0.2,0.5l-0.9,0.6l-1.9,0.2l-3.4-0.9l-0.7,0.6l-0.4,1.1l0.9,3.6l-0.5,6.4l0.9,2.9l1.5,13.6l3,4.2l0.6,1.4
	l0,1.1l-0.8,2.2L290.6,111.9z"/>
<path id="IL-Z" class="st0" d="M209.7,209.6l-1.1-1l0.1-1l-1.2-1.6l-1-2.9l0.2-4.1l-0.5-4.4l-2.8-4.7l-2.8-2.1l-1.5-0.4l-3.3-0.1
	l-8.4,1.6l-2,0l-1.4-0.4l-2.7-1.3l-2.6-1.9l-3.1-3.2l-2.4-1.3l-1.7,0.2l-0.9,0.5l-1,1.1l0,0l-0.9-1.5l-0.4-0.4l-2-0.8l-0.6-0.4
	l-1.3-2.4l-0.5-0.4l-0.6-0.3l-1,0.4l-1.2,2l-1.9,0.9l-0.5,0.4l-0.3,1.5l-0.4,0.6l-1.1,0.3l-1.1,2.1l-0.7,0.6l-1.1,0.4h-0.5l-2.8-0.9
	h-2.7l-0.7-0.2l-0.6-0.7l-0.4-1l-0.7-0.3l-0.3,0.2l-0.8,0.1l-0.5-1.4l-0.5-0.4l-1.1-0.3l-0.3-1.1l0.5-1.8l0.1-1.4l-0.4-0.5l-0.9-0.4
	l-0.4-1l-0.3-0.2l-0.8,0.1l-0.5-0.5l-0.3-1.1v-1.7l-0.7-0.7l-0.3-0.1l-0.5-0.4l-0.1-0.8l0.4-0.6l0.7-0.2h1.3l1.3,0.6l0.8,0.1
	l1.1-0.2l0.1-0.7l-0.4-0.6l-2.6-0.7l-0.6-0.8l-0.1-0.9l0.2-1.2l0.7-1.2l0.5-0.5l1-0.4h0.9l1.1,0.3l1.9,1h0.8l0.5-0.4l0.5-0.9
	l1.2-2.9l0.6-0.8l3-1.7l0.5-0.5l0.3-0.6l-0.1-1.2l-0.6-0.8l-0.8-0.6l-0.3-0.7l0.1-2l0.2-0.7l0.4-0.4l0.4-0.1l0.5,0.5l0.9,1.5
	l0.3,0.2l0.6-0.2l1.1-1.2l0.3-0.6l0.1-0.8v-0.4l-0.4-1l1.6-1.2l0.4-0.5l0.1-0.4l-0.8-2l-0.1-0.9l0.1-0.4l2.5-4l0.1-1.2l0.3-1.1
	l-0.1-0.9l-0.3-1l-0.9-1.4l-1.2-3.1l0-1.2l0.7-2.6l-0.1-0.8l-1.1-0.8l-3.2-1l-1.8-1.5l-1.5-0.8V119l0.6-2.2l0.1-0.9l-0.4-0.5
	l-0.9-0.5l-0.7-0.7l-0.4-1l-0.1-1.2l-0.3-0.1l0.5-3.7l-0.7-2l-1.2,0.2l0,0l-0.3-0.5l-0.4-0.3l-0.6-0.1l-0.2,0.2v0.4l-0.3-0.1
	l-0.4,0.1v-0.4l0.8-2l0.1-1.5l0.7-2.8l0.1-1.7l0.1-0.3l-0.1-0.7l0.1-0.1v-0.6l0.2-0.7l-0.1-0.3l0.4-1.1v-0.5l0.3-0.1v-1.5l0.2-0.2
	l0.1-0.8l0.7-1.2l-0.1-0.8l-0.1-0.3l0.1-0.1v-0.7l0.2-0.4l0-0.6l0.3-0.6l-0.1-0.2l0.2-0.1l-0.1-0.6l0.3-0.7l0.1-0.8l0.2-0.5l0.1-0.8
	l0.5-0.8l-0.2-0.1v-0.5l0.5-0.4l-0.1-0.1l0.1-0.5l-0.1-0.3l0.3-0.5l-0.1-0.6h0.1l0-0.6l0.2-0.2l0.1-1.3l0.2-0.4l0.1-1.9l0.2-0.3V73
	l-0.1-0.2v-1.9l7.7-0.1l5.4-0.5l6.1,1.1l0.6-0.3l1-1.1l2-0.7l6.4-0.2l6.6-0.9l3.4,0.8l2.9,5.5l1.6,1.9l2.6,1.5l1,0.3l4.4-1.9
	l4.7-0.4l1.2-0.7l2.9-2.8l0.9-1.2l1.4-1l0.8-0.1l3,0.7l2.9-1.1l0.4-0.5l0.2-2.6l0.4-0.9l3.3-1.4l0.9-2l0.4-4.5l1.1-5l1.1-1.9
	l0.9-2.3l-0.1-2.5l-0.6-2.8l0.1-1.6l1.5-3.3l1-0.8l1.6-2.1l1.6-3.6l0.4-0.4l1.2,1l4.1,5.8l0.7,0.2l0.6-0.6l0,0l1.4,1.3l1.3,0.3
	l1.3-0.3l2.3-1.2l1-0.1l2.2,0.3l1,0.6l0.2,0.5l-1.5,3.4l-0.8,3.2l-0.1,4.5l0.3,2.7l0.8,3.6l0,1.4l-0.6,2.5l-2.6,6.9l-0.5,4.5
	l-0.1,5.3l-0.5-0.6l-1.9,0.6l-0.8,0.9l-1.8,3.4l-2.8,2.8l0.1,1l2,3.7l0.3,4.7l-0.8,10.5l-0.4,1.8l-1,2.2l-0.1,1.1l0.4,0.9l0.8,0.4
	l1.3-0.6l0.7,1.2l1.5,1.6l2.2,4.4l0.8,1.9l0.5,3.2l-0.3,3.1l-1.2,4.6l-0.3,7.4l-0.5,3.6l-1.9,4l-3.3,3.3L240,149l1.2,0.9l3.3,1.5
	l0.5,0.5l0.1,1.3l0,0l-4.9,2.1l-1.1,1.3l0.3,2.9l-1.9,0.8l0.1,1.2l-0.4,0.5l-1.5,0.4l-2.5,1.9l-0.2,2.1l0.5,0.6l-0.2,3l0.4,0.9
	l1.3,0.7l0.3,1.3l-0.8,1.9l-0.1,1.9l1.8,3.7l-0.2,0.4l-1.7,0l-0.3,1.9l-0.8,0l-1-0.7l-0.4,0.2l0.1,1.2l1.2,1.9l-0.4,0.6l-1.7,0.4
	l-0.9,1.3l0.8,0.6l1.1,0l1.1,2.5l1.3,0.5l0.3,0.6l-0.2,1l-2.1,3.8l-0.1,1l0.3,0.9l1.4,0.7l0.4,0.7l-0.4,1l-0.8,0l-0.6,0.5l0.4,2.7
	l-2,0.6l0.5,4.6l-0.3,0.8l-1.3,0.4l-0.2,0.3l1.6,2.8l-1.4-0.1l-4-1.1l-5.1-2.4l-2.2-0.7l-3.9-0.2l-2.6,0.8L209.7,209.6z"/>
<path id="IL-HA" class="st0" d="M110.1,209.6l-0.1-0.2l0.2-0.5l0.3-0.2l0.1-0.5v-0.1h-0.5l0.3-0.4v-0.3l0.2-0.4l0.4-0.2l-0.1-0.2
	l0.1-0.1l0.7-3.5l0.1-1.6l0.5-1.6l0.3-1.5l-0.4-1h-2.1v-0.3l1.9-0.1l0.1-0.1l0.1-0.4l0.2,0.2l0.1,0.4h0.6l0.1-0.1h-0.3l-0.2-0.2
	v-0.2l0.2-0.1l0.1-0.4V196l-0.2-0.1v-0.2l0.2-0.1l0.1,0.2h0.1l0.2-0.2l-0.1-0.2l0.1-0.6l0.5-0.9l-0.1-0.3l-0.3,0.1l-0.1-0.8l0.2-0.1
	v-0.4l0.2-0.3l-0.1-0.2l0.3-0.4v-0.4l-0.2-0.2l0.1-0.7l0.4-0.3l0.1-0.8l0.5-0.6l-0.5-0.1l-0.1-0.3h0.2l0.3-0.6l0.4-1.7l0.2-0.3
	l0.1-0.7l0.2-0.5l-0.1-0.7l-0.3-0.1l-0.1-0.2v-0.6l0.2-0.7l0.4-0.4l0.3,0.1l0.3-0.6l-0.1-0.2l-0.3-0.1v-0.3l-0.2-0.2l0.6-1.1
	l-0.1-0.3l0.1-0.4l0.3-0.3l0.4-1.4l0.2,0.1l0.1-0.2l-0.1-0.4l0.4-0.7l-0.1-0.4l-0.3-0.3v-0.3l0.3-0.3l0.1-0.8l-0.2-0.1V173l0.3-0.8
	l0.3-0.4l-0.1-0.2l0.1-0.4l0-1l0.2-0.4v-0.5l-0.2-0.1l0.2-0.6l0.2-1.8l0.2-0.1l0.2-0.6l0.1-1.6l0.3-1.2l0.3-0.6l-0.3-0.2l0.2-1.2
	l-0.1-0.9l0.4-0.4l0.1-0.2l0.1-1.8l0.3-1.9l-0.1-1.7l0.2-0.4v-0.2l-0.2-0.2v-0.3l0.1-0.1l-0.1-0.4l0.3-0.2l-0.1-0.3l-0.2-0.2v-0.4
	l0.3-0.9v-0.4l0.5-0.6v-0.3l0.4-0.4l0.7,0.1l0.5-0.6l0.3-0.7l0.2-0.9l-0.2-0.5l0.3-0.4l0.2-2.1l0.4-0.9l0.3-4l0.2-0.7v-1.8l0.1-0.8
	l0.2-0.4l0.2-2.9l-0.2-0.9h0.2l0.1-0.1l0.1-1.4l0-0.7l-0.2-0.4h0.1l0.1-0.2l0.1,0.2l0.1-0.1v-0.2l-0.1-0.1l0.1-0.5l-0.2-0.2
	l-0.1-0.5v-1.8l0.2-0.3l-0.2-0.3l0.3-0.3l0.4,0.1l1.1-1l0.5-0.1l0.6,0.1l0.9-0.4l0.2-0.3l0.1-0.1l0.1,0.1l0.1-0.2h0.4l0.6,0.3
	l0.4,0.8h0.4l0.2,0.2l0.9,0.3l0.5,0.1v0.2l0.2,0.3l1.3,0.1l1.2-0.3v0.2l-0.6,0.2l-0.1-0.1l-0.4,0.3h-0.2l-1.2-0.1l-0.7-0.2l-0.9-0.6
	l-0.4,0.1l0.2,0.1l0.1,0.2l0.2,0.1l0,0.2l1,0.5l0.1,0.3l0.2,0.1l0.3,0.3l0.1,0.4l0.2-0.1v-0.6h0.2l0.1,0.5h0.2l0.1-0.3l-0.2-0.2
	v-0.2l0.1-0.1l0.3,0.1l0.4,0.6l0.1,1.1l0.3,0.1l0.2,0.5h0.6l0.2-0.2l0.5-0.1L137,127l0.2-0.1l0.8,0.5l0.1,0.9l1-0.3l0-0.2l-0.1-0.2
	l-0.5-0.1l-0.1-0.6l-0.4,0.1l-0.3-0.2l0.8-0.2l1.5-1l0.3-0.1l0.2-0.4l0.3-0.1v-0.2l0.3-0.2v-0.3l0.2-0.2l0.3-0.6l0.7-0.6l1-1.5
	l1.7-4l0.3-0.1l-0.1-0.4l0.4-1.4l0.2-0.1l-0.1-0.2l0.4-1.1l0.2-0.2l-0.1-0.2l0.5-1.7l-0.1-0.2l0.4-2.2l0.1-2.5l-0.5-1l0,0l1.2-0.2
	l0.7,2l-0.5,3.7l0.3,0.1l0.1,1.2l0.4,1l0.7,0.7l0.9,0.5l0.4,0.5l-0.1,0.9l-0.6,2.2v0.7l1.5,0.8l1.8,1.5l3.2,1l1.1,0.8l0.1,0.8
	l-0.7,2.6l0,1.2l1.2,3.1l0.9,1.4l0.3,1l0.1,0.9l-0.3,1.1l-0.1,1.2l-2.5,4l-0.1,0.4l0.1,0.9l0.8,2l-0.1,0.4l-0.4,0.5l-1.6,1.2l0.4,1
	v0.4l-0.1,0.8l-0.3,0.6l-1.1,1.2l-0.6,0.2l-0.3-0.2l-0.9-1.5l-0.5-0.5l-0.4,0.1l-0.4,0.4l-0.2,0.7l-0.1,2l0.3,0.7l0.8,0.6l0.6,0.8
	l0.1,1.2l-0.3,0.6l-0.5,0.5l-3,1.7l-0.6,0.8l-1.2,2.9l-0.5,0.9l-0.5,0.4h-0.8l-1.9-1l-1.1-0.3h-0.9l-1,0.4l-0.5,0.5l-0.7,1.2
	l-0.2,1.2l0.1,0.9l0.6,0.8l2.6,0.7l0.4,0.6l-0.1,0.7l-1.1,0.2l-0.8-0.1l-1.3-0.6h-1.3l-0.7,0.2l-0.4,0.6l0.1,0.8l0.5,0.4l0.3,0.1
	l0.7,0.7v1.7l0.3,1.1l0.5,0.5l0.8-0.1l0.3,0.2l0.4,1l0.9,0.4l0.4,0.5l-0.1,1.4l-0.5,1.8l0.3,1.1l1.1,0.3l0.5,0.4l0.5,1.4l0.8-0.1
	l0.3-0.2l0.7,0.3l0.4,1l0.6,0.7l0.7,0.2h2.7l2.8,0.9h0.5l1.1-0.4l0.7-0.6l1.1-2.1l1.1-0.3l0.4-0.6l0.3-1.5l0.5-0.4l1.9-0.9l1.2-2
	l1-0.4l0.6,0.3l0.5,0.4l1.3,2.4l0.6,0.4l2,0.8l0.4,0.4l0.9,1.5l0,0l-2.2,2.5l-0.6,1.2l-2.1,2l-3.4,2.5L157,193l-6.9,2.6l-1.3,1
	l-1.6,3l-0.8,2.8l-0.8,5.2l-1.5,4.2l-0.4,2.5l0,0l-0.8-0.1l-4.8,1.5h-1.2l-0.8-0.2l-1.2-1.6l-1.2-0.7l-0.6-1.2l-0.9-1l-0.6-0.4
	l-0.7-0.2h-4.1l-2.6-0.6l-2.6-0.2l-1.7,0.2l-2.1,0.8l-1.2,0.1l-0.8-0.2l-2-0.9l-1.6-0.3L110.1,209.6z"/>
<path id="IL-M" class="st0" d="M76.4,318l1.6-4l0.2-0.9l0.5-1.1v-0.2l0.2-0.2l0.2-1.2l0.3-0.6l0-0.7l0.2,0l0-0.2l0.2,0v-0.4l0.1-0.2
	h0.2V308h0.1l0.4-0.7l0.2-0.1l0-0.3l1.4-2.1l1.2-3l1.2-3.1l2.1-7.3l0,0l1.4,0.2l0.8,0.6l1.2,0.2l3.1,0l1.5,0.8l1.2,0.2l2.7-0.2
	l1.4-0.4l1.2-1.1l2.3-2.8l1.2-0.7h0.9l1,0.4l0.9,1.5l0.7,0.3l1-0.4l0.2-0.3l0.5-0.3l1.2-0.3l1.7,0.2l0.7-0.7l0.1-0.9l-0.2-0.7
	l-0.7-0.7l-1.9-0.8l-0.9-5.5l-0.2-0.7l-0.7-0.7l-1.7-1.1l-0.6-0.8l-0.1-0.8l0.1-1.1l0.2-0.7l0.1-1.8l0.2-1.6l1.5-1.8l1.2-2.1
	l0.5-1.3l0-1.7l-0.5-1.4l0.3-1.1l0.1-2.6l-0.3-0.7l-1.5-0.8l-0.5-0.9l-0.9-0.4l-1.3-1.1l-1.3-0.5l-3.7-0.4l-1.3,0l0,0l0.3-0.8v-0.3
	l-0.2-0.2l0.1-0.3l0.5-1.2l0.2-0.2l-0.1-0.4l0.4-0.8l0.1-0.7l0.5-0.8l0.1-0.8l0.2-0.6l-0.1-0.6l0.4-0.4v-0.9l0.3-1.5l0.3-0.4
	l0.5-1.3l-0.1-0.7l0.2-0.3l0.2-0.8l-0.1-0.2l0.5-1.4l0-0.8h-0.2v-0.2l0.3-0.6l0.1-1.3l0.5-1l0.1-0.6l0.4-1l-0.1-0.7l0.2,0.1l0.2-0.1
	l-0.1-1l0.2-1l0.2-0.2l0-0.4l0.7-3.2v-0.2l-0.2-0.2l0-0.3l0.6-0.3l0.1-0.2l0.3-1.9l0.2-0.5v-0.7l0.3-0.6l0.8-3.7v-0.7l0.2-1.2h-0.3
	v-0.1l0.5-0.5l0.2-0.3l0.1-0.8l-0.1-0.7l0.3-1.1l-0.3-0.2l0.2-0.5l0.2-0.1l0.4-1l0.2-0.1l0.1-0.8l0,0l2.2-0.1l1.6,0.3l2,0.9l0.8,0.2
	l1.2-0.1l2.1-0.8l1.7-0.2l2.6,0.2l2.6,0.6h4.1l0.7,0.2l0.6,0.4l0.9,1l0.6,1.2l1.2,0.7l1.2,1.6l0.8,0.2h1.2l4.8-1.5l0.8,0.1l0,0
	l-0.4,2.6l-1.2,1.2l-4.5,2l-1.1,1.4l-1.8,3.4l-0.2,5.5l0.8,5.8l-0.6,1.5l-1.5,1l-2.4,3.4l-3.1,7.1l-0.3,2.4l0.1,2.4l2.4,3.5l0.9,2
	l1.3,5.8l0.2,2.6l-0.6,2.1l-1.4,2.6l-0.2,1.6l0.5,1.4l1.8,1.9l2,3.8l0.6,2.3l-0.4,3l-1.4,3l0,1.4l0.3,1.1l-0.8,0.6l0.8,2l-2.4,5
	l0.4,4.6l2.6,3.6l3.9,3.1l0.8,3.2l-1.5,4.7l-8.6,1.5l-0.1,0.2l0,0l-4.4-0.2l-2.7-0.3l-1.6,0.2l-1.3,1l-1.6,4.5l-1.8,1.1l-5.5,1.2
	l-2.8,1l-3.5,3.5l-0.8,2l0,0h-0.4l-0.5,0.4l-1.1,1.2l-1.7,2.4l-0.9,1l-0.5,0.4l-1.1,0.3l-0.6-0.4l-1-1.4l-1.2-3.9l-0.4-1l-0.8-1.1
	l-1-0.8l-3-1.7l-0.4-0.1l-1.1,1.2l-0.5,0.4l-0.7,0.1l-1.6-0.2l-0.8,0.2l0.2,0.6l1.3,0.6l0.3,1.1l1,0.9l0.1,0.4l-0.4,0.5l-0.4,0
	l-1.1-0.3l-0.3,0.1l-0.1,1.3l-0.5,0.5l-1.6,0.3l-0.4-0.1l-1.1-0.8l-1.1-0.3l-1.9-0.1l-0.8-0.6l-0.2-0.7v-0.5L77,334l0.8-0.6l1.3-0.6
	l0.5-0.5l0.3-0.6l-0.1-0.8l-0.6-0.8l-1.8-1l-0.4-1v-0.8l0.5-0.9l0.6-0.3l0.4-0.1l1.7,0.6l0.8,0.1l0.9,0l0.5-0.4l0-2.2l0.4-1.4
	l-0.3-1.5l0.1-0.4l1.3-1.4l0.1-0.7l-0.3-0.6L83,318l-1.7,0.6l-1.2-0.1l-1.1-1.3l-0.9,0.1l-0.5,0.5l-0.7,0.3L76.4,318z"/>
<path id="IL-TA" class="st0" d="M86.9,291.3l0.4-1.5l0.4-0.9l0.2-1.3l0.4-0.5l-0.2-0.2l0.3-1.1l0.3-0.5V285l0.2-0.5l0.2-0.3l0.1-1.2
	l0.6-0.5v-0.5l-0.2-0.2l0.5-0.5h0.3l0.4-0.3l0.5-0.8l0.3-1.1l0.2-0.3l0-0.5l-0.1-0.1l0.3-0.1l-0.2-0.3l0.2-0.2l-0.1,0l0.1-0.4
	l0.7-1.7l0-0.5l0.2-0.1l0.1-0.3l-0.2-0.7v-0.6l0.4-0.3l0.2,0.1l0.3-0.9l0.4-0.9l-0.2-0.5l0.1-0.3h0.1l0.1,0.3h0.2l0.5-1.6l0.3-1.7
	l0.4-0.6l0.2-0.4l-0.1-0.2l0.1-0.1l0.5-1.9v-0.9l0.6-1.5l-0.1-0.6l0.5-0.3l-0.1-0.5l-0.3-0.2l0.1-1.3l0.2-0.2l0.3,0.1l0.1-0.2
	l0.7-2.2l0.5-2.5l0.3-0.6l0,0l1.3,0l3.7,0.4l1.3,0.5l1.3,1.1l0.9,0.5l0.5,0.9l1.5,0.8l0.3,0.7l-0.1,2.6l-0.3,1.1l0.5,1.4l0,1.7
	l-0.5,1.3l-1.2,2.1l-1.5,1.8l-0.2,1.6l-0.1,1.8l-0.2,0.7l-0.1,1.1l0.1,0.8l0.6,0.8l1.7,1.1l0.7,0.7l0.2,0.7l0.9,5.5l1.9,0.8l0.7,0.7
	l0.2,0.7l-0.1,0.9l-0.7,0.7l-1.7-0.2l-1.2,0.3l-0.5,0.3l-0.2,0.3l-1,0.4l-0.7-0.3l-0.9-1.5l-1-0.4h-0.9l-1.2,0.7l-2.3,2.8l-1.2,1.1
	l-1.4,0.4l-2.7,0.2l-1.2-0.2l-1.5-0.8l-3.1,0l-1.2-0.2l-0.8-0.6L86.9,291.3z"/>
<path id="IL-D" class="st0" d="M215.1,399.4l-0.1,10.3l-0.6,4l-2.8,8.1l-6.5,11.7l-2,4l-1.9,3.3l-0.9,4l2,4.3l7.7,10.4l1.4,2.9
	l0.9,4.2l0.2,3.1l-1.2,5.1l-1.1,3.7l-6.6,10.2l-0.7,4.1l0.4,3.3l1.4,3.9l0,4.1l-3,2.8l-6.5,4.2l-4.6,10.2l-0.1,3.6l0.9,3.3l-0.9,4
	l-3.3,1.2l-2.6,3.1l-1.5,4.2l0,8.1l-2.4,5.7l-4.2,7.7l-0.9,4.4L173,569l-5.1,9.8l-0.4,3.3l-3.9,18.1l-1.2,3.6l-2.4,3.4l-0.7,2.7
	l6,11.2l0.9,3.1l-0.6,2.4l-3.8,4.2l-1.1,3.4l0.6,4l-3.3,7.3l5.4,23.9l-13.3,19.1l-3.6,14.3l0.5,15.5l-5.1,10.2l-0.8,3.7l0.5,3
	l-0.5,4l-2.9,12.2v6.7l0.5,4.2l0,3.8l-2.3,2.8l-3.1,2.3l-2.6,3l-1.9,3.7l-1.7,4.7l-0.3-0.1l-0.7,0l-0.4-0.4h-0.4l-0.1,0.5l-0.2,0.1
	l-0.1,0.5l-0.2,0.3l-0.1,0.3h-0.4l-0.1,0.3l-0.4,0.2l-0.2,0.4l-0.1,0.8L123,786h-0.4v0.2l-0.5,0.6l-0.6,0.4l-0.2,0.5l-0.7,0.7v0.8
	l-0.4,0.3l-0.6,0.9l-0.3,0.3v0.5l-0.8,0.9l-0.7,0.3l-4.3-5l-2.3-4.3l-0.8-3.3l-0.7-5.8l1.6-5.4l0.8-5.4l-0.8-3.7l-3.1-5.4l0.1-9.5
	L90.7,695l0.3-3l-5.6-15.4l-14.8-42l-3.5-13.2l-12-7.9l-0.4-6.1l3.6-10.1l-7.5-8.8l0.5-10.9l-5-20.8l-15.2-31.9l-9.8-28.8L7,449.1
	l7.8-5.8l7.7-6.6l1.9-3.5l0-5.4l-0.4-5.8l1.5-5l5.7-7.4l17.3-16.8l5-1.2l1.5-2.7l0-3.9l-2.3-3.5l-7.5-7l4.2-6.8l0.7-0.5l0.3-0.5
	l0-0.1l-0.3-0.1l0-0.5l-0.2-0.1v-0.2l0.6-0.7v0.2L50,366l0.5,0.1l0.1,0.2l0.2,0l2.6-4.4l0.3-1.2l0.6-0.4l1-1.2l0.4-0.8l0-0.3
	l0.5-0.7l0.3-0.7l0.2-0.2l0.1,0.2H57l2.9-5.2l0.5-0.7l1.3-2.7l0.8-1l0.4-1.1l1.9-3.3l1.7-3.7l0.9-1.5l0.9-2.1l0.3-0.5l0.1-0.1
	l-0.1-0.2l0.5-0.9l0.5-1.4l0.6-1.1l0.7-1.7l-0.5-0.6l-0.3-1l0.1-0.8l0.5-1.2h0.2v0.4l-0.2,0.1l-0.3,0.7v1l0.6,1.1h0.4l0.1-0.3
	l-0.5-0.3v-0.2l0.2-0.1l0-0.6l0.1-0.2l0.1-0.5v-0.2l-0.2-0.1v-0.2h0.4l0.2,0.2h1.1l0.1-0.3l0.4-0.4l0.1-0.2l-0.2-0.1l0-0.3l0-1.5
	l0.2-0.1l0.1,0.2h0.1v-0.1l0.4-0.2l1.4-3.6l1.1-2.4l0,0h0.7l0.7-0.3l0.5-0.5l0.9-0.1l1.1,1.3l1.2,0.1L83,318l0.6,0.3l0.3,0.6
	l-0.1,0.7l-1.3,1.4l-0.1,0.4l0.3,1.5l-0.4,1.4l0,2.2l-0.5,0.4l-0.9,0l-0.8-0.1l-1.7-0.6l-0.4,0.1l-0.6,0.3l-0.5,0.9v0.8l0.4,1l1.8,1
	l0.6,0.8l0.1,0.8l-0.3,0.6l-0.5,0.5l-1.3,0.6L77,334l-0.4,0.6v0.5l0.2,0.7l0.8,0.6l1.9,0.1l1.1,0.3l1.1,0.8l0.4,0.1l1.6-0.3l0.5-0.5
	l0.1-1.3l0.3-0.1l1.1,0.3l0.4,0l0.4-0.5l-0.1-0.4l-1-0.9l-0.3-1.1l-1.3-0.6l-0.2-0.6l0.8-0.2l1.6,0.2l0.7-0.1l0.5-0.4l1.1-1.2
	l0.4,0.1l3,1.7l1,0.8l0.8,1.1l0.4,1l1.2,3.9l1,1.4l0.6,0.4l1.1-0.3l0.5-0.4l0.9-1l1.7-2.4l1.1-1.2l0.5-0.4h0.4l0,0h0.3l1,1l1.1,1.6
	l0.7,1.6l0.8,2.5l0.4,0.5l0.6,0.3l1.5-0.3l0.9,0.1l0.6,0.2l0.9,1.1v0.7l-0.9,1.9l0.1,0.7l0.8,2.1l0.1,0.8l-0.1,1.3l-0.5,1l-0.2,0.8
	l0.2,3l-0.1,1.6l0.4,1.4v1.4l-0.3,1.6l0.4,1l2.6,1.5l2.5,1.7l2.3,1.3l0.8,0.7l1,1.3l2.7,0.7l0.6,0.3l3.8,2.9l0,0l-2.7,4l-1.5,7.6
	l0.8,8.2l-0.6,3.5l-3.4,6.5l-3.8,4.9l-3.3,6.7l0.5,4l1.9,3.1l2.8,2.3l4.3,1.1l7.8-1l7.2-1.8l7.1,0.6l9.9,0.6l3.6-1.9l2.4,0.5
	l3.7-0.6l3.2-0.3l4.1-0.8l2.5-1.5l5-5.1l4.3-4.8l5.6-2.5l5.7-4.2l6.1-5.4l2.7-1l11.4,0.2L215.1,399.4z"/>
<path id="IL-JM" class="st0" d="M170.9,345.7l-0.2,0.4l-8.7,0.2l-7.3,3l-9,8.9l-8.1,3.9l-2.9,2.5l-5.3,5.7l-1.6,2.6l0,0l-3.8-2.9
	l-0.6-0.3l-2.7-0.7l-1-1.3l-0.8-0.7l-2.3-1.3l-2.5-1.7l-2.6-1.5l-0.4-1l0.3-1.6v-1.4l-0.4-1.4l0.1-1.6l-0.2-3l0.2-0.8l0.5-1l0.1-1.3
	l-0.1-0.8l-0.8-2.1l-0.1-0.7l0.9-1.9v-0.7l-0.9-1.1l-0.6-0.2l-0.9-0.1l-1.5,0.3l-0.6-0.3l-0.4-0.5l-0.8-2.5l-0.7-1.6l-1.1-1.6l-1-1
	H103l0,0l0.8-2l3.5-3.5l2.8-1l5.5-1.2l1.8-1.1l1.6-4.5l1.3-1l1.6-0.2l2.7,0.3l4.4,0.2l0,0l-2,2.9l1.4,5.4l3.3,1.4l4.8,0.7l4.4-1.6
	l3.2-3.5l3.3-1.9l3.8,3.5l3.5,1.7l7.4,3l8,0l3.1,3.3l-0.5,7.3L170.9,345.7z"/>
<path id="PS" class="st0" d="M54.9,385l0,3.9l-1.5,2.7l-5,1.2l-16,15.4l-1.4,1.3l-5.8,7.4l-0.7,2.3l-0.8,2.8l0.4,5.8l0,5.4l-1.9,3.5
	l-6.4,5.5l-1.3,1.1L7,449.1l-6.7-22.2l0.4-0.3l5.1-5l5.9-6.3l1.9-1.7l1.6-1.5l3.2-3.4l2.5-2.8l4.1-4.9l1-1.4l1.3-1.6l3.8-4.2
	l7.8-10.1l4.3-6.2l1.9-3l7.5,7L54.9,385L54.9,385z M232.2,248.7l-0.5-1.6l-0.2-3.2l-0.7-2.9l0.6-4.5l-1.2-2.9l0-1.4l0.8-2.4
	l-1.4-3.6l0.1-1.6l0.6-1.4l0.5-3l-0.4-1.2l-1.3-1.6l0.3-3.6l-4-1.1l-5.1-2.4l-2.2-0.7l-3.9-0.2l-2.6,0.8l-2.2-0.4l-1.1-1l0.1-1
	l-1.2-1.6l-1-2.9l0.2-4.1l-0.5-4.4l-2.8-4.7l-2.8-2.1l-1.5-0.4l-3.3-0.1l-8.4,1.6l-2,0l-1.4-0.4l-2.7-1.3l-2.6-1.9l-3.1-3.2
	l-2.4-1.3l-1.7,0.3l-0.9,0.5l-3.2,3.6l-0.6,1.2l-2.1,2l-3.4,2.5L157,193l-6.9,2.6l-1.3,1l-1,1.9l-0.6,1.1l-0.8,2.8l-0.8,5.2
	l-1.5,4.2l-0.7,5.1l-1.2,1.2l-4.5,2l-1.1,1.4l-1.8,3.4l-0.2,5.5l0.8,5.8l-0.6,1.5l-0.4,0.3l-1.1,0.8l-2.4,3.4l-3.1,7.1l-0.3,2.4
	l0.1,2.4l2.4,3.5l0.9,2l1.3,5.8l0.2,2.6l-0.6,2.1l-1.4,2.6l-0.1,0.8l-0.1,0.8l0.5,1.3l1.8,1.9l0.2,0.5l1.7,3.3l0.6,2.3l-0.4,3
	l-1.4,3l0,1.4l0.3,1.1l-0.8,0.6l0.8,2l-2.4,5l0.4,4.6l2.6,3.6l3.9,3.1l0.8,3.2l-1.5,4.7l-8.6,1.5l-2.1,3.1l1.4,5.4l3.3,1.4l4.8,0.7
	l4.4-1.6l3.2-3.5l2.4-1.4l0.9-0.5l3.8,3.5l3.5,1.7l7.4,3l8,0l3.1,3.3l-0.5,7.3l-1.8,2.8l-0.2,0.4l-8.7,0.2l-7.4,3l-7.4,7.4l-1.6,1.5
	l-8.1,3.9l-2.9,2.5l-5.3,5.7l-1.6,2.6l-2.7,4l-1.5,7.6l0.8,8.2l-0.6,3.5l-3.4,6.5l-3.8,4.9l-3.3,6.7l0.5,4l1.9,3.1l2.8,2.3l4.3,1.1
	l7.8-1l7.2-1.8l7,0.6l9.9,0.6l3.6-1.9l2.4,0.5l3.7-0.6l3.2-0.3l4.1-0.8l2.5-1.5l5-5.1l4.3-4.8l5.6-2.5l5.7-4.2l1.7-1.5l4.4-3.9
	l2.7-1l11.4,0.2l0.1-8.3l0.4-9l3.6-12.5l3.7-11.8l1.6-5l0.2-0.4l4.2-7.5l-2.1-11.8l1.4-3.8l-1.8-2.9l1.7-3.3l-3-1.9l-1.7-8.5l3.1-3
	l1.1-7.2l-2.9-6.3l1.6-2.3L226,289l-1.9-2.2l-0.4-8.7l0.5-1l0.9-1.9l0.6-3.6l2.4-3.3l0.7-2.2l0.5-5.4l1.1-5.1l1.5-2.9l0.4-1.7
	L232.2,248.7L232.2,248.7z"/>
</svg>
